<svg xmlns="http://www.w3.org/2000/svg" width="1200" height="630" viewBox="0 0 1200 630" role="img" aria-labelledby="title desc">
  <title id="title">EkaTech</title>
  <desc id="desc">Minimal software, maximum impact.</desc>
  <defs>
    <radialGradient id="glow" cx="50%" cy="50%" r="65%">
      <stop offset="0%" stop-color="#00d4ff" stop-opacity="0.36" />
      <stop offset="45%" stop-color="#8b5cf6" stop-opacity="0.22" />
      <stop offset="100%" stop-color="#000000" stop-opacity="0" />
    </radialGradient>
    <linearGradient id="text" x1="0" y1="0" x2="1" y2="0">
      <stop offset="0%" stop-color="#ffffff" />
      <stop offset="100%" stop-color="#9ca3af" />
    </linearGradient>
  </defs>
  <rect width="1200" height="630" fill="#030303" />
  <rect width="1200" height="630" fill="url(#glow)" />
  <g opacity="0.16" stroke="#ffffff" stroke-width="1">
    <path d="M0 90H1200M0 180H1200M0 270H1200M0 360H1200M0 450H1200M0 540H1200" />
    <path d="M120 0V630M240 0V630M360 0V630M480 0V630M600 0V630M720 0V630M840 0V630M960 0V630M1080 0V630" />
  </g>
  <circle cx="600" cy="315" r="150" fill="none" stroke="#00d4ff" stroke-opacity="0.32" stroke-width="2" />
  <circle cx="600" cy="315" r="95" fill="none" stroke="#8b5cf6" stroke-opacity="0.42" stroke-width="2" />
  <text x="600" y="280" text-anchor="middle" fill="url(#text)" font-family="Inter, Arial, sans-serif" font-size="94" font-weight="700" letter-spacing="-3">EkaTech</text>
  <text x="600" y="350" text-anchor="middle" fill="#d1d5db" font-family="Inter, Arial, sans-serif" font-size="34" font-weight="400">Minimal Software. Maximum Impact.</text>
  <text x="600" y="405" text-anchor="middle" fill="#93c5fd" font-family="Inter, Arial, sans-serif" font-size="22" font-weight="500" letter-spacing="5">AI • WEB • AUTOMATION</text>
</svg>
